<?xml version="1.0" encoding="utf-8"?>
<!-- Designed by Vexels.com - 2020 All Rights Reserved - https://vexels.com/terms-and-conditions/  -->
<svg version="1.1" id="Layer_1" xmlns="http://www.w3.org/2000/svg" xmlns:xlink="http://www.w3.org/1999/xlink" x="0px" y="0px"
	 viewBox="0 0 1200 1200" enable-background="new 0 0 1200 1200" xml:space="preserve">
<g>
	<path fill="#1A1A3A" d="M838.75,297.22c19.296-0.206,34.82-11.443,34.674-25.099c-0.145-13.656-15.905-24.56-35.201-24.355
		c-19.295,0.205-34.819,11.443-34.673,25.098C803.694,286.522,819.454,297.426,838.75,297.22z M812.456,267.107
		c1.054,5.222,4.393,9.067,8.342,11.739c3.984,2.673,8.654,4.302,13.433,5.036c4.778,0.818,9.751,0.728,14.584-0.142
		c4.839-0.911,9.572-2.644,13.907-5.639c-2.95,4.429-7.822,7.53-12.984,9.201c-5.198,1.736-10.813,2.076-16.256,1.232
		c-5.411-0.926-10.782-3.036-14.95-6.809C814.353,278.137,811.451,272.427,812.456,267.107z"/>
	<path fill="#1A1A3A" d="M943.882,326.968c-0.146-13.656-15.906-24.56-35.201-24.355c-19.296,0.206-34.819,11.443-34.674,25.099
		c0.145,13.656,15.906,24.56,35.201,24.355C928.503,351.861,944.026,340.624,943.882,326.968z M903.938,343.38
		c-5.409-0.926-10.782-3.035-14.95-6.809c-4.179-3.589-7.082-9.298-6.075-14.619c1.053,5.222,4.393,9.067,8.343,11.739
		c3.984,2.674,8.653,4.302,13.431,5.036c4.778,0.818,9.751,0.728,14.584-0.142c4.84-0.911,9.573-2.644,13.908-5.639
		c-2.949,4.429-7.822,7.53-12.983,9.2C914.997,343.884,909.382,344.224,903.938,343.38z"/>
	<path fill="#1A1A3A" d="M735.186,277.884c-19.296,0.206-34.819,11.442-34.674,25.099c0.145,13.656,15.906,24.56,35.201,24.354
		c19.296-0.205,34.819-11.442,34.674-25.098C770.242,288.582,754.482,277.678,735.186,277.884z M746.701,317.419
		c-5.199,1.736-10.813,2.076-16.257,1.232c-5.409-0.926-10.782-3.036-14.95-6.809c-4.18-3.589-7.082-9.298-6.076-14.619
		c1.054,5.222,4.393,9.067,8.343,11.739c3.984,2.674,8.653,4.302,13.431,5.036c4.778,0.818,9.751,0.728,14.584-0.141
		c4.84-0.911,9.573-2.644,13.908-5.639C756.735,312.647,751.862,315.748,746.701,317.419z"/>
	<path fill="#1A1A3A" d="M773.016,357.515c0.145,13.656,15.905,24.56,35.201,24.355c19.295-0.205,34.819-11.442,34.674-25.099
		s-15.906-24.56-35.201-24.355C788.395,332.622,772.871,343.859,773.016,357.515z M781.923,351.756
		c1.054,5.222,4.393,9.067,8.343,11.739c3.984,2.674,8.653,4.302,13.433,5.036c4.777,0.818,9.75,0.728,14.583-0.141
		c4.84-0.911,9.573-2.644,13.908-5.639c-2.951,4.429-7.823,7.53-12.985,9.2c-5.198,1.736-10.813,2.076-16.256,1.232
		c-5.411-0.926-10.782-3.036-14.95-6.809C783.82,362.786,780.918,357.077,781.923,351.756z"/>
	<path fill="#1A1A3A" d="M544.796,495.783c2.252-0.82,4.515-1.62,6.759-2.453c0.759-0.28,50.213-17.823,62.407-23.196l-6.363,1.317
		c-0.002,0.001-0.077,0.017-0.203,0.044c-0.438,0.092-0.875,0.182-1.314,0.272l0.008,0.013c-9.166,2.003-57.099,12.479-57.17,12.495
		c-3.194,0.693-6.39,1.342-9.585,2.006c1.618,2.384,3.146,4.82,4.472,7.357C544.175,494.349,544.452,495.07,544.796,495.783z"/>
	<path fill="#1A1A3A" d="M1055.876,501.118c-21.521-29.299-45.829-62.398-69.054-98.404c6.847-16.825,26.425-79.407-30.109-139.982
		c-55.605-59.576-118.982-62.316-125.838-62.435c-1.552-0.205-6.332-0.777-13.338-1.173l-27.312-24.665
		c0,0-78.599-14.435-131.568,35.266l33.93,41.151c45.457-49.352,132.086-37.208,136.713-36.517c0.341,0.051,0.7,0.076,1.041,0.078
		c0.621,0.002,62.792,0.907,116.029,57.946c55.941,59.937,29.294,121.155,26.072,127.939c-0.051,0.107-0.063,0.223-0.109,0.332
		l-0.034-0.014c-0.204,0.471-20.977,46.375-116.553,44.738c-3.676-4.953-7.922-9.846-12.68-14.66
		c5.802,14.555,6.335,30.262,0.263,44.536c-2.278,5.354-5.372,10.154-9.082,14.406c-14.15,74.867-126.117,51.393-149.935,8.861
		c-18.632-33.271,0.609-51.957,12.368-59.633c-0.401-8.219,0.892-16.433,4.204-24.218c3.259-7.662,8.185-14.324,14.424-19.812
		c-13.586-7.358-56.882-35.347-48.12-89.263c2.869-17.648,8.756-31.999,16.634-43.682l-25.18-52.175
		c-0.012,0.011-0.025,0.022-0.037,0.033c0,0-11.677,11.591-17.362,64.118l-331.019,89.45c-5.167-1.608-10.43-3.116-15.893-4.406
		c-14.826-3.501-29.993-5.605-45.116-6.422l-28.006-28.44c0,0-81.862-16.695-144.461,35.223l35.54,43.103
		c41.582-31.792,114.615-44.844,178.793-29.7c5.115,1.208,10.769,2.756,16.739,4.696c0.009,0.003,0.018,0.006,0.027,0.009
		c7.056,2.294,14.562,5.162,22.209,8.733l0.077,0.297l0.341-0.103c32.001,15.047,66.18,42.53,78.718,92.46
		c7.356-12.941,19.865-22.481,35.838-27.158c17.852-5.226,37.927-3.743,56.549,4.174c15.728,6.689,28.823,17.348,37.718,30.423
		l9.013-3.499l51.807-20.111l15.836-6.147l-76.915,13.182l78.049-26.613l-85.134,18.183l33.393-11.554
		c21.131-7.295,42.152-14.888,63.063-22.686c-21.807,4.785-43.632,9.339-65.513,13.58l-29.616,5.763l101.302-33.723l-113.287,23.442
		l135.443-43.349l-167.91,40.03l144.938-46.162l-0.001,0.001l10.747-3.423l-8.53,2.003v0l-153.427,36.023l42.357-13.679
		c22.065-7.147,89.285-28.725,111.406-35.686l-47.254,10.818c-22.265,5.153-44.497,10.458-66.715,15.792l-49.09,11.434
		c6.821-2.207,34.913-11.018,41.738-13.214c22.717-7.294,76.485-23.977,100.364-31.37c6.399-1.907,12.797-3.818,19.217-5.655
		c-9.926,2.047-19.835,4.189-29.735,6.375c-0.001-0.004-0.014-0.004-0.014-0.009c-0.249,0.057-0.535,0.123-0.789,0.181
		c-0.322,0.071-0.646,0.136-0.968,0.208h0.063c-24.008,5.502-67.683,15.674-90.691,21.192c-14.465,3.478-28.92,6.989-43.376,10.491
		l159.338-49.871L466.59,385.857c11.817-3.537,23.637-7.062,35.442-10.636c40.894-12.425,81.825-24.888,122.156-39.018
		c-41.248,11.123-82.892,20.521-124.551,29.898c-17.336,3.884-34.687,7.697-52.04,11.526l174.3-53.931l-160.003,37.402
		l168.236-52.843l-215.573,52.601l227.139-68.82l-122.498,29.49l138.613-37.456c-1.887,6.014-3.465,12.384-4.583,19.257
		c-8.177,50.314,22.208,81.233,42.831,96.021c-20.987,5.38-51.773,20.205-60.37,61.04c-4.535,21.549,3.127,44.25,21.577,63.911
		c1.793,1.911,3.691,3.764,5.642,5.581l-79.838,22.549c-0.306-0.94-0.672-1.846-1.008-2.77l48.648-18.893l-52.859,8.932
		c-0.388-0.78-0.812-1.518-1.214-2.282l46.39-17.693l-51.461,9.007c-0.589-0.915-1.175-1.815-1.775-2.698l47.295-17.782
		l-53.293,9.621c-0.644-0.813-1.275-1.59-1.912-2.359l49.539-18.463l-38.942,7.112l-9.665,1.765l-8.127,1.484
		c-0.672-0.703-1.348-1.413-1.971-2.04l61.247-22.122l-68.804,13.318c7.441,15.939,8.175,32.713,1.854,47.584
		c-0.988,2.322-2.172,4.522-3.454,6.657c1.271,83.327-114.799,73.809-144.962,34.368c-24.938-32.611-4.023-54.727,6.084-62.709
		c-2.488-8.456-3.191-17.173-1.83-25.667c-7.727,4.099-12.221,7.319-12.221,7.319s-46.925,25.176-29.813,75.382
		c-0.835,0.213-1.817,0.47-3.07,0.8c-78.489,20.725-218.062,37.974-270.941-79.414c-13.73-30.487-10.784-58.973,8.523-82.378
		c2.022-2.451,4.226-4.817,6.561-7.117l-25.141-52.092c-9.631,14.774-10.835,36.973-16.854,111.259
		c0,13.469-14.445,47.694-8.426,102.523c6.019,54.828,26.483,105.389,46.949,306.431c15.579,136.87,103.096,146.96,116.259,147.705
		c0.474,0.119,0.967,0.194,1.475,0.212c1.188,0.042,2.486,0.064,3.891,0.064c32.89,0,242.899-14.85,225.357-158.215
		c-2.838-42.632-8.162-68.61-13.191-90.425c3.675,1.269,12.168,1.048,21.468,1.302c24.943,0.684,47.16-5.986,66.42-17.953
		c42.949-26.68,58.907-75.303,64.249-98.29l-0.148-97.064l11.501,86.783l67.871-17.335c4.246,18.98,21.052,64.086,84.797,65.196
		c1.069,0.018,2.118,0.028,3.173,0.028c44.738-0.005,74.426-16.815,93.375-38.783c0.062,0.076,0.083,0.17,0.149,0.244
		c1.824-2.528,3.597-5.222,5.212-7.878c3.07-5.087,5.88-10.408,8.32-15.932c2.385-5.536,4.644-11.207,6.367-17.066
		c1.857-5.833,3.209-11.827,4.432-17.894c-0.047,6.17-0.238,12.401-0.968,18.605c-0.595,6.231-1.763,12.408-3.119,18.586
		c-1.412,6.166-3.254,12.263-5.466,18.288c-1.686,4.453-14.698,18.36-16.948,22.727c17.772,38.325,51.626,121.962,90.286,134.388
		c13.026,4.19,38.436,7.936,55.054,6.842c43.14-2.84,93.751-30.423,112.265-41.386c24.998-14.808,40.944-39.286,47.39-72.756
		C1160.574,643.66,1114.372,580.758,1055.876,501.118z M400.026,950.339c-32.827,32.394-109.652,50.107-143.026,57.877
		c-19.871,4.626-40.845,0.206-56.75-12.573c-10.376-8.337-20.965-20.138-30.458-36.825c4.405,1.753,8.876,3.259,13.415,4.308
		c-6.647-3.611-12.647-8.072-18.041-13.045c-2.317-4.678-4.565-9.622-6.688-14.991c7.392,3.976,15.141,7.034,23.047,8.961
		c-11.345-6.27-20.977-14.837-28.516-24.574c-0.746-2.36-1.5-4.701-2.206-7.179c9.352,5.977,19.433,10.467,29.807,12.987
		c-14.523-7.963-26.407-19.573-34.645-32.705c-0.118-0.552-0.244-1.082-0.36-1.639c0.182,0.129,0.349,0.283,0.532,0.41
		c10.924,7.612,23.038,13.061,35.473,15.902c-16.559-8.493-30.086-21.573-38.915-36.481c0.659,0.485,1.277,1.041,1.945,1.51
		c11.262,7.891,23.774,13.517,36.624,16.45c-16.875-8.475-30.778-21.608-39.938-36.662c0.99,0.734,1.975,1.476,2.984,2.173
		c12.106,8.34,25.607,14.135,39.425,16.934c-18.389-8.319-33.792-21.959-43.826-37.914c1.361,1.014,2.731,2.011,4.126,2.956
		c12.983,8.774,27.495,14.703,42.296,17.36c-13.919-5.675-26.277-14.239-36.253-24.599c-4.27-4.437-8.063-9.239-11.355-14.273
		c1.881,1.404,3.788,2.757,5.735,4.03c14.176,9.258,30.046,15.25,46.134,17.598c-15.329-5.398-29.111-14.107-40.259-24.975
		c-4.842-4.719-9.135-9.893-12.838-15.354c2.234,1.666,4.5,3.274,6.823,4.759c15.131,9.653,32.069,15.714,49.177,17.887
		c-16.422-5.239-31.331-14.073-43.419-25.356c-5.221-4.87-9.855-10.253-13.842-15.964c2.776,2.073,5.601,4.058,8.513,5.854
		c16.336,10.073,34.611,16.124,52.968,17.998c-17.766-4.956-34.089-13.852-47.368-25.585c-5.732-5.056-10.822-10.709-15.189-16.748
		c3.359,2.497,6.8,4.852,10.348,6.95c17.698,10.471,37.452,16.442,57.181,17.953c-19.233-4.606-37.127-13.498-51.76-25.669
		c-6.36-5.274-12.006-11.255-16.83-17.698c3.969,2.932,8.069,5.644,12.302,8.056c19.118,10.84,40.388,16.685,61.52,17.824
		c-20.722-4.242-40.232-13.076-56.279-25.663c-6.994-5.461-13.209-11.746-18.503-18.574c4.812,3.611,9.852,6.855,15.066,9.723
		c20.834,11.669,44.272,16.695,67.121,17.166c-22.613-3.587-44.401-11.724-62.018-25.097c-8.053-5.995-15.227-13.015-21.312-20.694
		c5.924,4.341,12.128,8.204,18.561,11.506c11.358,5.824,23.32,10.159,35.536,13.033c12.211,2.856,24.718,4.27,37.077,3.783
		c-24.623-2.299-48.027-11.484-67.79-24.92c-8.858-6.073-16.856-13.203-23.638-21.136c7.161,5.577,14.791,10.476,22.821,14.452
		c25.446,12.648,53.981,16.823,81.164,14.126c-27.34-0.425-54.34-7.893-76.506-22.325c-9.26-5.998-17.575-13.221-24.781-21.321
		c7.252,4.848,14.885,9.009,22.762,12.389c27.942,11.855,58.205,15.629,87.464,13.507c-29.296-0.987-58.4-8.062-83.304-21.971
		c-11.254-6.326-21.469-14.198-29.963-23.419c9.311,6.595,19.358,11.947,29.732,16.126c15.258,6.138,31.218,9.904,47.257,11.74
		c16.045,1.817,32.217,1.719,48.042-0.366c-15.953,0.519-31.865-0.98-47.28-4.287c-15.405-3.321-30.347-8.483-44.078-15.654
		c-12.058-6.295-23.055-14.292-32.344-23.721c11.392,7.475,23.805,13.057,36.459,17.092c17.516,5.576,35.57,8.423,53.563,9.546
		c18.006,1.098,36.006,0.461,53.769-1.586c-17.873,0.481-35.739-0.473-53.273-3.103c-17.512-2.646-34.742-6.984-50.806-13.709
		c-16.032-6.704-30.881-15.941-42.592-27.95c-1.126-1.144-2.19-2.335-3.253-3.527c16.039,12.231,34.468,20.582,53.321,25.915
		c19.847,6.126,40.497,7.322,60.751,8.122c10.165-0.39,20.308-0.766,30.387-1.439l30.04-3.973l-30.166,1.619
		c-10.05-0.117-20.085-0.53-30.062-0.918c-19.82-2.345-39.701-5.081-58.039-12.38c-19.092-7.047-36.942-17.238-51.154-31.124
		c0.055-0.066-0.037,0.044,0.017-0.022c14.472,9.773,30.513,16.78,46.884,21.568c20.061,6.382,40.972,7.886,61.507,8.988
		c10.316-0.268,20.61-0.455,30.845-0.993l30.542-3.509l-30.631,1.153c-10.195-0.25-20.37-0.85-30.491-1.358
		c-20.085-2.642-40.221-5.675-58.783-13.223c-18.61-7.031-36.066-16.956-50.176-30.318c-3.145-3.247-6.538-6.233-9.324-9.762
		c28.115,22.322,64.346,35.324,108.524,38.687c56.806,4.319,109.118-8.804,128.729-13.956c4.611,9.184,10.786,17.389,18.37,24.566
		c7.798,84.331,44.16,184.01,46.23,251.008C424.821,899.374,420.882,929.756,400.026,950.339z M512.549,750.237
		c-1.224,0.759-2.489,1.438-3.741,2.142c-1.183,0.561-2.332,1.209-3.53,1.723c-12.284,5.261-25.512,7.729-38.672,8.135l-9.886-0.082
		c-3.287-0.233-6.568-0.728-9.836-1.072l-4.895-0.565c-1.623-0.269-3.231-0.697-4.844-1.036l-9.641-2.144
		c-2.58-0.705-5.13-1.533-7.679-2.361c1.813,0.414,3.62,0.862,5.448,1.212c0.301,0.089,10.078,1.43,10.383,1.498
		c1.73,0.224,3.445,0.522,5.183,0.674c0.154,0.029,5.092,0.198,5.247,0.221c3.496,0.108,6.976,0.331,10.459,0.297
		c0.081,0.005,2.629-0.183,2.709-0.18c0.235,0.013,7.519-0.53,7.755-0.527c11.77-1.247,23.378-4.036,34.151-8.635
		c1.915-0.818,3.803-1.693,5.661-2.626c6.13-3.082,11.989-6.72,17.342-10.92c4.167-3.27,8.026-6.88,11.466-10.833
		c0.722-1.034,1.411-2.095,2.065-3.183c-4.548,4.911-9.74,9.155-15.334,12.779c-4.939,3.201-10.191,5.919-15.59,8.186
		c-0.713,0.299-1.428,0.59-2.146,0.873c-12.357,4.866-25.575,7.076-38.703,7.282c-0.347-0.044-9.677-0.18-10.015-0.257
		c-3.278-0.278-6.547-0.805-9.801-1.206c-0.141-0.043-4.731-0.603-4.87-0.651c-1.615-0.293-3.216-0.733-4.82-1.094
		c-0.276-0.106-9.312-2.168-9.578-2.289c-1.97-0.538-4.312-1.332-6.501-2.077c1.647,0.388,3.285,0.815,4.944,1.149
		c0.604,0.178,9.735,1.471,10.347,1.608c1.724,0.239,3.436,0.542,5.168,0.71c0.308,0.057,4.922,0.238,5.232,0.284
		c3.485,0.147,6.956,0.385,10.433,0.376c0.161,0.011,2.543-0.155,2.703-0.148c0.47,0.026,7.285-0.455,7.754-0.449
		c11.762-1.107,23.372-3.713,34.209-8.043c1.927-0.771,3.83-1.596,5.705-2.476c6.182-2.906,12.116-6.34,17.581-10.313
		c4.251-3.093,8.218-6.512,11.8-10.263c0.508-0.887,0.985-1.8,1.43-2.741c-4.736,4.596-10.06,8.555-15.75,11.924
		c-5.019,2.975-10.325,5.491-15.761,7.581c-0.719,0.275-1.44,0.543-2.161,0.803c-12.431,4.471-25.637,6.422-38.736,6.429
		c-0.694-0.087-9.468-0.278-10.144-0.433c-3.269-0.323-6.526-0.883-9.765-1.339c-0.283-0.087-4.567-0.641-4.845-0.737
		c-1.608-0.317-3.202-0.769-4.797-1.152c-0.55-0.211-8.981-2.193-9.514-2.434c-1.462-0.4-3.437-1.101-5.342-1.788
		c1.485,0.36,2.962,0.765,4.459,1.081c0.904,0.266,9.393,1.513,10.31,1.718c1.719,0.254,3.427,0.562,5.154,0.746
		c0.462,0.086,4.753,0.278,5.216,0.347c3.473,0.186,6.938,0.438,10.406,0.456c0.242,0.016,2.456-0.126,2.698-0.116
		c0.705,0.039,7.05-0.379,7.754-0.37c11.755-0.968,23.365-3.39,34.266-7.451c1.94-0.724,3.856-1.499,5.749-2.326
		c6.236-2.729,12.243-5.96,17.822-9.707c4.335-2.916,8.411-6.144,12.134-9.693c0.294-0.74,0.558-1.507,0.794-2.299
		c-4.922,4.282-10.378,7.954-16.164,11.068c-5.101,2.749-10.459,5.063-15.935,6.977c-0.723,0.252-1.449,0.496-2.177,0.733
		c-12.503,4.076-25.701,5.768-38.767,5.575c-1.041-0.131-9.259-0.376-10.274-0.607c-3.259-0.368-6.505-0.96-9.73-1.473
		c-0.423-0.13-4.403-0.679-4.82-0.824c-1.6-0.342-3.186-0.805-4.773-1.21c-0.827-0.317-8.652-2.218-9.451-2.58
		c-1.104-0.302-2.785-0.923-4.474-1.563c1.422,0.357,2.833,0.76,4.264,1.077c1.206,0.355,9.051,1.555,10.274,1.828
		c1.714,0.269,3.419,0.582,5.14,0.782c0.616,0.115,4.582,0.319,5.201,0.41c3.463,0.225,6.919,0.492,10.381,0.534
		c0.322,0.021,2.372-0.097,2.693-0.083c0.941,0.051,6.815-0.303,7.755-0.292c11.745-0.829,23.357-3.066,34.323-6.858
		c1.951-0.678,3.883-1.403,5.791-2.176c6.29-2.553,12.371-5.579,18.062-9.101c4.421-2.738,8.605-5.776,12.469-9.122
		c0.078-0.594,0.132-1.213,0.16-1.857c-5.111,3.967-10.699,7.354-16.58,10.213c-5.182,2.524-10.594,4.636-16.107,6.372
		c-0.729,0.228-1.46,0.449-2.192,0.663c-12.576,3.681-25.764,5.115-38.8,4.723c-1.386-0.175-9.049-0.474-10.401-0.783
		c-3.251-0.413-6.484-1.038-9.695-1.606c-0.563-0.174-4.238-0.717-4.794-0.91c-1.592-0.366-3.171-0.841-4.749-1.268
		c-1.101-0.422-8.322-2.242-9.388-2.725c-0.85-0.232-2.3-0.787-3.828-1.393c1.431,0.374,2.852,0.794,4.293,1.128
		c1.508,0.444,8.711,1.597,10.238,1.939c1.709,0.284,3.41,0.601,5.126,0.818c0.77,0.143,4.412,0.359,5.185,0.473
		c3.453,0.264,6.901,0.545,10.355,0.613c0.401,0.026,2.285-0.068,2.688-0.051c1.176,0.064,6.581-0.227,7.754-0.213
		c11.738-0.689,23.352-2.743,34.381-6.266c1.963-0.631,3.91-1.306,5.835-2.026c6.343-2.376,12.498-5.199,18.302-8.494
		c4.506-2.562,8.798-5.408,12.803-8.552c-0.136-0.447-0.294-0.919-0.476-1.414c-5.297,3.653-11.017,6.754-16.993,9.358
		c-5.265,2.297-10.729,4.208-16.281,5.768c-0.734,0.204-1.47,0.402-2.208,0.593c-12.648,3.287-25.825,4.461-38.831,3.869
		c-1.734-0.219-8.84-0.572-10.532-0.958c-3.241-0.458-6.463-1.115-9.659-1.739c-0.705-0.218-4.074-0.755-4.769-0.997
		c-1.585-0.39-3.156-0.877-4.726-1.326c-1.376-0.528-7.992-2.267-9.324-2.871c-0.662-0.181-1.94-0.687-3.349-1.269
		c1.496,0.408,2.982,0.861,4.488,1.225c1.809,0.533,8.368,1.639,10.203,2.049c1.702,0.299,3.4,0.621,5.111,0.854
		c0.924,0.172,4.242,0.399,5.169,0.536c3.442,0.304,6.884,0.599,10.328,0.693c0.482,0.031,2.2-0.039,2.682-0.019
		c1.411,0.077,6.346-0.152,7.755-0.134c11.729-0.55,23.345-2.421,34.438-5.674c1.976-0.584,3.937-1.209,5.879-1.876
		c6.397-2.2,12.625-4.819,18.542-7.888c4.59-2.384,8.991-5.04,13.137-7.982c-0.35-0.301-0.72-0.625-1.11-0.973
		c-5.486,3.338-11.336,6.154-17.41,8.502c-5.345,2.071-10.863,3.78-16.454,5.163c-0.738,0.181-1.48,0.355-2.223,0.524
		c-12.721,2.892-25.888,3.807-38.864,3.016c-2.08-0.262-8.63-0.67-10.66-1.133c-3.233-0.503-6.442-1.193-9.624-1.873
		c-0.845-0.261-3.91-0.793-4.744-1.083c-1.577-0.414-3.142-0.913-4.701-1.384c-1.653-0.634-7.662-2.292-9.262-3.017
		c-0.512-0.14-1.669-0.616-2.994-1.184c1.602,0.457,3.193,0.955,4.807,1.362c2.111,0.622,8.027,1.681,10.166,2.159
		c1.697,0.315,3.392,0.641,5.097,0.89c1.078,0.201,4.072,0.439,5.154,0.598c3.432,0.343,6.865,0.653,10.302,0.772
		c0.563,0.036,2.113-0.011,2.677,0.013c1.646,0.09,6.111-0.076,7.754-0.055c11.721-0.411,23.338-2.097,34.495-5.081
		c1.989-0.538,3.963-1.112,5.923-1.726c6.45-2.024,12.752-4.439,18.783-7.281c4.673-2.207,9.184-4.672,13.471-7.412
		c-0.565-0.154-1.147-0.331-1.745-0.53c-5.673,3.023-11.656,5.553-17.825,7.647c-5.427,1.846-10.998,3.352-16.626,4.559
		c-0.745,0.157-1.491,0.309-2.239,0.454c-12.793,2.497-25.95,3.154-38.895,2.163c-2.427-0.306-8.421-0.767-10.789-1.308
		c-3.224-0.548-6.422-1.27-9.589-2.006c-0.986-0.305-3.746-0.832-4.719-1.169c-1.569-0.438-3.126-0.949-4.678-1.442
		c-1.928-0.74-7.332-2.317-9.198-3.162c-0.39-0.107-1.473-0.572-2.746-1.139c1.742,0.519,3.476,1.075,5.233,1.537
		c2.413,0.711,7.686,1.723,10.13,2.27c1.692,0.33,3.383,0.661,5.083,0.926c1.231,0.23,3.901,0.479,5.138,0.662
		c3.422,0.382,6.846,0.706,10.276,0.85c0.643,0.042,2.028,0.018,2.672,0.045c1.882,0.103,5.877,0,7.755,0.023
		c11.712-0.272,23.33-1.774,34.552-4.489c1.999-0.491,3.989-1.016,5.965-1.576c6.503-1.847,12.88-4.058,19.023-6.674
		c4.759-2.03,9.378-4.305,13.805-6.842c-0.78-0.008-1.573-0.037-2.38-0.088c-5.861,2.709-11.976,4.953-18.24,6.791
		c-5.508,1.62-11.133,2.925-16.799,3.954c-0.75,0.133-1.501,0.262-2.254,0.384c-12.866,2.102-26.013,2.5-38.927,1.31
		c-2.773-0.35-8.212-0.866-10.919-1.483c-3.214-0.593-6.4-1.347-9.553-2.14c-1.127-0.348-3.581-0.87-4.693-1.256
		c-1.562-0.462-3.112-0.984-4.654-1.5c-2.203-0.846-7.003-2.342-9.135-3.307c-0.286-0.078-1.336-0.549-2.603-1.134
		c1.918,0.598,3.828,1.225,5.763,1.753c2.715,0.799,7.344,1.764,10.094,2.38c1.686,0.345,3.374,0.681,5.069,0.962
		c1.385,0.258,3.731,0.519,5.122,0.725c3.41,0.421,6.828,0.759,10.251,0.93c0.723,0.047,1.942,0.047,2.666,0.077
		c2.117,0.115,5.643,0.076,7.755,0.102c11.705-0.132,23.324-1.451,34.609-3.897c2.013-0.444,4.017-0.919,6.01-1.426
		c6.556-1.67,13.006-3.678,19.262-6.068c4.844-1.853,9.571-3.937,14.139-6.272c-0.995,0.139-1.999,0.257-3.015,0.354
		c-6.048,2.394-12.296,4.353-18.655,5.936c-5.591,1.394-11.268,2.497-16.973,3.349c-0.756,0.11-1.512,0.215-2.269,0.314
		c-12.94,1.707-26.076,1.846-38.959,0.457c-3.12-0.393-8.003-0.963-11.047-1.658c-3.206-0.638-6.38-1.425-9.519-2.273
		c-1.267-0.392-3.417-0.908-4.667-1.342c-1.554-0.486-3.097-1.021-4.63-1.558c-2.479-0.951-6.673-2.367-9.072-3.453
		c-0.191-0.052-1.246-0.547-2.547-1.169c2.121,0.693,4.239,1.401,6.382,2.009c3.017,0.888,7.003,1.806,10.058,2.49
		c1.681,0.36,3.364,0.701,5.054,0.999c1.54,0.287,3.561,0.56,5.107,0.788c3.4,0.46,6.809,0.813,10.225,1.008
		c0.804,0.052,1.856,0.076,2.661,0.11c2.352,0.128,5.407,0.151,7.755,0.18c11.696,0.007,23.318-1.128,34.667-3.305
		c2.025-0.397,4.044-0.822,6.054-1.276c6.609-1.494,13.133-3.297,19.502-5.462c4.928-1.676,9.764-3.569,14.474-5.702
		c-1.209,0.286-2.426,0.551-3.651,0.796c-1.979,0.66-3.994,1.211-6.001,1.791c9.49-3.147,17.399-7.06,22.995-11.456
		c6.2-4.872,11.417-9.996,15.858-15.308l0.393,42.619C565.483,681.71,550.721,726.571,512.549,750.237z M698.515,553.967
		c1.753,0.862,3.518,1.696,5.307,2.501c-3.414-1.294-6.823-2.6-10.226-3.891C695.235,553.041,696.877,553.504,698.515,553.967z
		 M860.655,556.475c-0.046,12.861-0.286,25.102-0.877,33.938c-0.211,3.178-5.07,62.692-57.583,86.862
		c-4.54,1.351-9.156,2.424-13.768,3.27c-13.27,2.311-26.8,2.296-40.077,0.936c-13.331-1.136-26.348-4.592-39.133-8.265
		c-4.192-1.378-8.34-2.883-12.48-4.395c-0.284-0.267-0.567-0.532-0.843-0.801c3.564,0.96,7.13,1.898,10.716,2.749
		c13.578,2.714,27.24,5.131,41.104,5.251c13.794,0.337,27.666-0.695,41.022-4c13.245-3.403,26.323-8.487,36.959-16.988
		c-5.588,3.841-11.823,6.566-18.165,8.743c-6.325,2.27-12.918,3.642-19.492,4.778c-13.219,2.073-26.656,1.886-39.837,0.412
		c-13.233-1.258-26.149-4.744-38.842-8.442c-6.209-2.064-12.334-4.403-18.464-6.614c5.273,1.437,10.534,2.887,15.832,4.16
		c13.472,2.738,27.023,5.186,40.784,5.429c13.692,0.453,27.47-0.403,40.785-3.466c6.625-1.635,13.19-3.489,19.426-6.205
		c6.244-2.618,12.319-5.771,17.615-9.945c-5.635,3.689-11.885,6.258-18.23,8.287c-6.33,2.122-12.902,3.362-19.451,4.384
		c-13.167,1.836-26.51,1.48-39.596-0.106c-13.137-1.377-25.952-4.893-38.554-8.617c-6.145-2.064-12.209-4.386-18.278-6.591
		c5.204,1.425,10.395,2.861,15.622,4.13c13.368,2.762,26.811,5.24,40.469,5.606c13.591,0.567,27.275-0.116,40.545-2.939
		c6.605-1.518,13.156-3.241,19.405-5.808c6.256-2.471,12.356-5.47,17.71-9.495c-5.682,3.533-11.945,5.945-18.291,7.825
		c-6.332,1.972-12.882,3.083-19.405,3.99c-13.113,1.601-26.362,1.079-39.353-0.618c-13.042-1.495-25.759-5.04-38.271-8.79
		c-6.086-2.064-12.094-4.373-18.104-6.572c5.138,1.414,10.264,2.838,15.425,4.104c13.266,2.785,26.602,5.294,40.157,5.78
		c13.491,0.68,27.079,0.166,40.305-2.418c6.584-1.402,13.119-2.994,19.38-5.412c6.264-2.323,12.389-5.166,17.801-9.039
		c-5.727,3.372-12.002,5.625-18.347,7.357c-6.332,1.822-12.859,2.803-19.356,3.596c-13.056,1.367-26.211,0.681-39.109-1.124
		c-12.947-1.612-25.569-5.187-37.992-8.962c-6.025-2.063-11.974-4.359-17.929-6.55c5.071,1.403,10.132,2.814,15.225,4.076
		c13.166,2.809,26.397,5.349,39.852,5.953c13.391,0.79,26.885,0.443,40.062-1.905c6.563-1.285,13.081-2.747,19.349-5.016
		c6.272-2.174,12.419-4.86,17.888-8.575c-5.772,3.207-12.055,5.3-18.396,6.882c-6.332,1.672-12.833,2.525-19.303,3.203
		c-12.997,1.134-26.059,0.289-38.865-1.624c-12.854-1.726-25.38-5.331-37.717-9.132c-5.967-2.062-11.862-4.345-17.76-6.53
		c5.007,1.392,10.004,2.792,15.032,4.049c13.067,2.833,26.195,5.403,39.549,6.124c13.294,0.898,26.694,0.715,39.819-1.397
		c6.541-1.168,13.04-2.502,19.315-4.62c6.277-2.025,12.443-4.551,17.969-8.105c-5.816,3.038-12.106,4.968-18.442,6.401
		c-6.327,1.52-12.802,2.246-19.245,2.81c-12.937,0.903-25.905-0.1-38.621-2.117c-12.762-1.839-25.197-5.474-37.449-9.302
		c-5.908-2.06-11.748-4.332-17.59-6.51c4.942,1.381,9.876,2.77,14.839,4.022c12.97,2.857,25.998,5.458,39.253,6.294
		c13.197,1.005,26.503,0.982,39.576-0.896c6.516-1.052,12.996-2.257,19.276-4.223c6.279-1.876,12.464-4.24,18.045-7.628
		c-5.857,2.865-12.151,4.631-18.48,5.914c-6.321,1.369-12.769,1.968-19.182,2.417c-12.874,0.674-25.749-0.483-38.375-2.605
		c-12.671-1.951-25.015-5.616-37.184-9.47c-5.854-2.058-11.639-4.32-17.428-6.49c4.881,1.371,9.753,2.749,14.653,3.996
		c12.876,2.881,25.805,5.514,38.963,6.462c13.102,1.111,26.313,1.246,39.331-0.401c6.492-0.935,12.95-2.014,19.232-3.828
		c6.279-1.727,12.479-3.927,18.114-7.145c-5.898,2.687-12.193,4.288-18.512,5.422c-6.314,1.217-12.732,1.691-19.116,2.026
		c-12.81,0.446-25.592-0.863-38.129-3.087c-12.581-2.061-24.838-5.758-36.926-9.639c-5.798-2.054-11.529-4.306-17.264-6.47
		c4.819,1.36,9.628,2.727,14.466,3.968c12.782,2.905,25.614,5.57,38.677,6.63c13.008,1.215,26.125,1.504,39.086,0.088
		c6.466-0.818,12.902-1.771,19.184-3.434c6.277-1.578,12.489-3.613,18.177-6.655c-5.935,2.504-12.228,3.939-18.536,4.924
		c-6.303,1.065-12.693,1.414-19.047,1.635c-6.392,0.111-12.77-0.203-19.113-0.834c8.591,0.371,17.069,0.039,25.225-1.145
		c30.555-4.426,55.02-17.625,69.203-36.563c0.006,0.613,0.011,1.234,0.016,1.851l-2.676,5.92c0.938,0.33,1.823,0.596,2.728,0.886
		c0.02,3.709,0.029,7.447,0.024,11.152l-1.188,2.374C859.899,556.209,860.25,556.317,860.655,556.475z M1134.001,706.821
		c-5.65,29.326-19.348,50.613-40.713,63.266c-8.299,4.913-17.256,8.212-26.407,10.303c-1.363-0.089-2.721-0.228-4.078-0.386
		c8.055-3.479,15.792-7.588,23.035-12.398c15.793-10.449,29.147-24.225,38.327-40.073c-11.776,14.047-26.718,24.738-42.876,31.814
		c-15.652,6.875-32.399,10.506-49.07,11.447c-0.445-0.214-0.89-0.425-1.334-0.645c10.479-2.447,20.701-5.81,30.426-10.294
		c22.166-10.118,41.353-26.367,53.713-46.503c-14.975,18.322-35.34,31.082-57.112,37.707c-15.516,4.772-31.667,6.708-47.696,6.445
		c-0.972-0.707-1.943-1.422-2.91-2.155c8.538-0.977,17.007-2.486,25.323-4.72c14.913-4.016,29.207-10.381,41.752-19.129
		c12.566-8.717,23.249-19.822,31.502-32.329c-9.526,11.584-21.108,21.261-33.991,28.324c-12.874,7.095-26.938,11.633-41.27,13.92
		c-12.675,2.011-25.483,2.343-38.207,1.454c-0.964-0.885-1.926-1.776-2.883-2.683c9.847-0.457,19.654-1.582,29.265-3.708
		c15.778-3.456,31-9.559,44.365-18.345c13.392-8.754,24.76-20.194,33.579-33.143c-10.081,12.012-22.328,22.003-35.965,29.077
		c-13.627,7.108-28.5,11.369-43.575,13.117c-13.645,1.57-27.357,1.227-40.907-0.475c-0.946-1.028-1.89-2.06-2.826-3.106
		c8.192,0.076,16.386-0.291,24.514-1.316c17.789-2.213,35.292-7.478,50.777-16.279c15.519-8.732,28.75-20.983,38.84-35.199
		c-11.343,13.265-25.377,23.987-40.974,30.995c-15.581,7.076-32.516,10.513-49.421,11.085c-11.699,0.412-23.387-0.533-34.921-2.407
		c-0.818-1.006-1.631-2.016-2.441-3.032c8.385,0.462,16.793,0.435,25.167-0.21c18.401-1.623,36.704-6.235,52.847-15.028
		c16.287-8.524,29.883-21.225,40.603-35.585c-11.956,13.392-26.354,24.558-42.65,31.337c-16.17,7.048-33.78,9.833-51.178,9.853
		c-11.829-0.13-23.589-1.582-35.167-3.944c-0.692-0.941-1.383-1.882-2.068-2.828c10.6,0.895,21.258,1.056,31.851,0.135
		c17.698-1.697,35.267-6.276,50.772-14.757c15.661-8.198,28.79-20.323,39.297-33.977c-11.727,12.665-25.65,23.264-41.341,29.728
		c-15.554,6.748-32.463,9.5-49.175,9.587c-14.022-0.066-27.961-2.016-41.577-5.301c-0.388-0.575-0.782-1.148-1.167-1.723
		c12.434,1.375,24.996,1.6,37.432,0.38c16.993-1.77,33.828-6.312,48.699-14.48c15.035-7.871,27.697-19.423,37.987-32.371
		c-11.492,11.939-24.94,21.972-40.027,28.12c-14.939,6.446-31.15,9.164-47.18,9.315c-15.891,0.043-31.713-2.361-47.001-6.598
		c-0.179-0.285-0.36-0.571-0.538-0.857c14.026,1.891,28.258,2.363,42.308,0.801c8.164-0.851,16.243-2.516,24.072-4.874
		c7.84-2.313,15.443-5.4,22.554-9.322c14.411-7.543,26.605-18.524,36.672-30.768c-11.249,11.212-24.221,20.683-38.706,26.515
		c-7.155,3.071-14.636,5.27-22.224,6.711c-7.577,1.485-15.268,2.292-22.967,2.326c-15.391,0.179-30.728-2.099-45.533-6.157
		c-1.523-0.415-3.016-0.921-4.528-1.371c14.871,2.19,30.02,2.726,44.914,0.864c7.808-0.922,15.535-2.522,23.006-4.883
		c7.473-2.316,14.752-5.242,21.547-9.019c13.763-7.253,25.529-17.602,35.35-29.167c-10.983,10.509-23.517,19.356-37.378,24.911
		c-6.85,2.931-14.026,4.976-21.263,6.421c-7.233,1.49-14.594,2.231-21.947,2.332c-14.706,0.309-29.371-1.804-43.528-5.584
		c-1.612-0.429-3.194-0.954-4.794-1.425c14.354,1.947,28.951,2.321,43.267,0.333c14.899-1.961,29.448-6.514,42.482-13.599
		c13.113-6.971,24.455-16.677,34.02-27.57c-10.704,9.812-22.806,18.024-36.041,23.31c-13.171,5.402-27.223,8.144-41.238,8.461
		c-14.023,0.419-28.017-1.528-41.525-5.013c-1.701-0.44-3.372-0.98-5.059-1.472c13.84,1.699,27.889,1.907,41.627-0.207
		c14.192-2.072,27.987-6.54,40.41-13.285c12.467-6.685,23.381-15.755,32.683-25.976c-10.416,9.115-22.079,16.698-34.694,21.712
		c-12.584,5.076-25.935,7.741-39.274,8.16c-13.342,0.525-26.667-1.254-39.527-4.444c-1.826-0.458-3.621-1.019-5.428-1.54
		c13.365,1.509,26.908,1.309,40.08-0.839c3.349-0.69,6.749-0.945,10.012-2.001l9.797-2.777c3.191-1.139,6.298-2.522,9.425-3.768
		c1.544-0.675,3.148-1.196,4.631-1.997l4.416-2.454c12.055-6.026,22.064-15.094,31.422-24.232
		c-10.441,8.002-21.194,15.593-33.42,19.962l-4.458,1.829c-1.49,0.59-3.09,0.898-4.624,1.361c-3.105,0.82-6.154,1.771-9.257,2.479
		l-9.443,1.488c-3.107,0.626-6.345,0.461-9.486,0.734c-12.652,0.527-25.297-0.826-37.513-3.786c-1.837-0.464-3.649-1.003-5.47-1.516
		c12.792,1.258,25.723,0.822,38.248-1.442c6.415-0.901,12.588-2.987,18.74-4.745c5.938-2.519,12.014-4.537,17.475-7.898
		c11.4-5.744,21.027-14.14,30.067-22.645c-10.093,7.342-20.451,14.266-32.049,18.367c-5.565,2.543-11.616,3.705-17.399,5.366
		c-6.006,0.9-11.893,2.123-17.931,2.19c-11.974,0.628-23.957-0.503-35.528-3.197c-1.925-0.476-3.824-1.017-5.729-1.545
		c12.294,1.053,24.692,0.359,36.642-2.025c3.017-0.532,6.007-1.134,8.923-2.097c2.922-0.902,5.881-1.614,8.728-2.673
		c5.638-2.314,11.309-4.389,16.501-7.502c5.421-2.623,10.253-6.218,15.133-9.609c2.523-1.574,4.642-3.714,6.902-5.623l6.664-5.834
		l-7.369,4.89c-2.475,1.579-4.789,3.375-7.478,4.588c-5.212,2.671-10.285,5.493-15.817,7.302c-5.309,2.302-10.975,3.53-16.485,4.99
		c-2.784,0.633-5.651,0.916-8.449,1.392c-2.79,0.535-5.633,0.714-8.472,0.826c-11.301,0.717-22.625-0.175-33.551-2.627l-8.115-2.072
		c-0.225-0.075-0.452-0.142-0.677-0.215l4.413,0.377c12.036,0.724,24.116-0.194,35.774-2.611c2.927-0.543,5.829-1.149,8.663-2.079
		c2.84-0.873,5.709-1.587,8.487-2.591c5.493-2.225,11.026-4.191,16.124-7.137c10.531-5.156,19.712-12.442,28.398-19.883
		c-9.671,6.217-19.532,12.026-30.29,15.564c-5.214,2.138-10.754,3.266-16.14,4.645c-2.724,0.581-5.516,0.871-8.248,1.32
		c-2.725,0.507-5.497,0.691-8.267,0.816c-11.027,0.743-22.081,0.057-32.794-2.087l-7.969-1.801
		c-0.431-0.129-0.863-0.246-1.295-0.371l5.24,0.278c11.705,0.348,23.392-0.759,34.694-3.209c5.688-0.998,11.184-2.921,16.65-4.578
		c5.346-2.136,10.739-4.002,15.743-6.78c10.307-4.864,19.428-11.697,28.089-18.694c-9.607,5.742-19.37,11.088-29.907,14.343
		c-5.12,1.976-10.531,3.011-15.794,4.31c-5.388,0.82-10.695,1.897-16.116,2.064c-10.755,0.783-21.541,0.274-32.044-1.54
		l-7.821-1.535c-0.257-0.066-0.51-0.134-0.766-0.2c1.315,0.033,2.634,0.105,3.948,0.104c11.1-0.004,22.13-1.221,32.783-3.774
		c10.64-2.506,21.002-6.005,30.588-10.944c9.753-4.579,18.53-10.808,26.91-17.213c-9.28,5.117-18.681,9.861-28.687,12.845
		c-9.843,3.347-20.093,5.151-30.264,5.994c-10.18,0.888-20.397,0.473-30.354-1.02c-2.899-0.432-5.768-0.983-8.615-1.594
		c2.357-0.026,4.709-0.086,7.044-0.304c11.354-0.855,22.409-3.193,33.029-6.498c10.519-3.648,20.696-7.947,30.143-13.478
		c4.849-2.506,9.237-5.82,13.829-8.667c4.425-3.138,8.655-6.534,12.95-9.761c-4.749,2.586-9.382,5.305-14.151,7.732
		c-4.931,2.135-9.609,4.709-14.659,6.44c-9.863,3.989-20.141,6.621-30.372,8.578c-10.318,1.613-20.683,2.233-30.843,1.509
		c-2.543-0.13-5.064-0.393-7.561-0.782c-2.134-0.231-4.226-0.649-6.312-1.057c4.203-0.223,8.38-0.558,12.487-1.22
		c11.102-1.629,21.842-4.555,32.16-8.306c10.211-4.064,20.105-8.661,29.302-14.374c4.725-2.607,9.005-5.961,13.486-8.883
		c4.327-3.175,8.461-6.601,12.663-9.864c-4.663,2.627-9.213,5.383-13.901,7.857c-4.837,2.219-9.426,4.843-14.386,6.688
		c-9.674,4.193-19.766,7.15-29.836,9.532c-10.162,2.068-20.406,3.266-30.542,3.244c-1.066,0.015-2.123-0.065-3.186-0.09
		c5.802-1.064,11.435-2.578,16.9-4.376c7.671-2.425,14.903-5.786,21.965-9.237c3.493-1.817,6.899-3.779,10.317-5.653l5.552-3.485
		c22.585-9.246,35.292-21.496,41.95-30.142c22.221,33.972,45.123,65.203,65.538,93
		C1100.926,586.348,1145.513,647.054,1134.001,706.821z"/>
	<path fill="#1A1A3A" d="M388.853,747.263l0.581-1.355l-0.426-0.155C388.958,746.258,388.905,746.758,388.853,747.263z"/>
	<path fill="#1A1A3A" d="M455.555,564.02c16.622,7.073,34.451,8.417,50.203,3.799c15.425-4.517,26.992-14.233,32.577-27.365
		c5.581-13.128,4.558-28.203-2.887-42.445c-7.607-14.55-20.946-26.458-37.564-33.526c-16.613-7.063-34.438-8.415-50.203-3.799
		c-15.425,4.517-26.992,14.233-32.577,27.36C403.436,515.484,421.582,549.567,455.555,564.02z M493.547,549.028
		c6.975-4.714,12.791-10.808,17.128-17.657c4.406-6.827,7.21-14.576,8.109-22.773c0.837-8.229-0.536-16.8-4.921-25.653
		c8.739,4.706,14.754,14.76,16,25.346c1.28,10.618-1.455,21.689-7.248,30.656c-5.689,9.046-14.214,16.171-24.005,19.983
		c-9.689,3.854-20.871,4.229-29.866,0.024C478.423,557.216,486.555,553.829,493.547,549.028z"/>
	<path fill="#1A1A3A" d="M422.465,580.267c3.864,4.249,8.585,7.664,13.656,10.491c5.159,2.715,10.638,4.553,16.203,5.791
		c11.167,2.242,22.775,2.062,33.678-1.029c10.814-2.973,21.205-9.221,27.167-18.476c-8.771,6.476-18.641,9.871-28.709,11.355
		c-10.071,1.377-20.37,1.095-30.182-1.052c-9.855-2.032-18.942-6.094-26.732-12.5c-3.838-3.203-7.5-6.797-10.383-11.003
		c-3.033-4.139-5.296-8.826-6.446-14.171c-1.01,5.422,0.176,11.208,2.332,16.427C415.254,571.349,418.542,576.104,422.465,580.267z"
		/>
	<path fill="#1A1A3A" d="M742.638,390.572c-15.66,4.588-27.406,14.456-33.079,27.791c-11.847,27.862,6.566,62.463,41.054,77.133
		c34.492,14.665,72.185,3.928,84.042-23.934c11.847-27.862-6.571-62.463-41.059-77.131c-10.286-4.377-21.029-6.591-31.477-6.591
		C755.439,387.839,748.878,388.744,742.638,390.572z M804.566,464.387c4.665-6.271,7.874-13.566,9.154-21.481
		c1.366-7.957,0.447-16.369-2.96-25.384c8.079,5.273,13.428,15.283,14.04,25.69c0.766,10.434-2.569,21.15-8.855,29.571
		c-6.228,8.471-15.209,14.79-25.161,17.534c-9.855,2.814-20.778,1.903-29.025-3.185c9.579-0.74,17.798-3.18,24.962-7.168
		C793.874,476.071,799.916,470.649,804.566,464.387z"/>
	<path fill="#1A1A3A" d="M746.712,515.569c-9.863-2.687-18.907-7.502-26.26-14.64c-3.633-3.557-7.008-7.515-9.53-12.017
		c-2.65-4.448-4.474-9.396-5.016-14.795c-1.078,5.355-0.112,11.076,1.831,16.291c1.963,5.25,5.005,10.059,8.658,14.339
		c3.607,4.341,8.04,7.964,12.864,10.988c4.889,2.955,10.165,5.077,15.56,6.63c10.837,2.913,22.266,3.505,33.224,1.308
		c10.874-2.112,21.548-7.347,28.405-15.844c-8.83,6.285-18.981,9.409-29.226,10.441
		C766.968,519.224,756.539,518.347,746.712,515.569z"/>
	<path fill="#1A1A3A" d="M259.514,474.624l35.773,13.601c0.626,0.322,1.364,0.414,2.063,0.258l50.165-11.553
		c1.822-0.406,2.706-2.284,1.775-3.762l-25.52-35.145c-0.612-0.971-1.847-1.469-3.051-1.23l-50.991,9.735
		c-0.94,0.186-1.711,0.795-2.044,1.615l-9.425,23.361C257.778,472.684,258.31,474.005,259.514,474.624z M289.15,470.329
		c2.799,0.57,5.547,1.298,8.261,2.125c5.485-1.291,11.022-2.346,16.589-3.269c5.76-0.886,11.547-1.64,17.46-1.826
		c-5.449,2.303-11.022,4.038-16.625,5.64c-5.617,1.536-11.262,2.944-16.965,4.083l-0.07,0.014c-0.392,0.078-0.789,0.044-1.142-0.075
		c-2.908-0.989-5.765-2.133-8.574-3.425c-2.805-1.304-5.578-2.705-8.224-4.497C283.051,469.218,286.116,469.725,289.15,470.329z"/>
	<path fill="#1A1A3A" d="M290.901,503.484c-0.396-0.623-1.061-1.066-1.833-1.222l-40.612-15.008
		c-1.394-0.282-2.803,0.429-3.275,1.655l-13.338,30.022c-0.282,0.73-0.185,1.536,0.263,2.194l21.225,32.939
		c0.667,0.981,1.975,1.437,3.193,1.112l55.019-13.537c1.752-0.467,2.563-2.3,1.651-3.738L290.901,503.484z M284.667,523.711
		c-2.223-4.242-4.149-8.647-4.809-13.741c3.925,3.314,6.584,7.319,8.946,11.486c2.233,4.237,4.158,8.642,4.81,13.741
		C289.679,531.887,287.02,527.883,284.667,523.711z"/>
	<path fill="#1A1A3A" d="M192.361,454.084c0.394,0.623,1.059,1.066,1.831,1.222l47.382,14.512c1.396,0.282,2.804-0.429,3.277-1.655
		l9.363-28.119c0.282-0.729,0.185-1.536-0.263-2.194l-22.295-33.223c-0.667-0.982-1.973-1.437-3.193-1.113l-55.755,12.753
		c-1.753,0.467-2.563,2.3-1.651,3.738L192.361,454.084z M231.02,427.129c2.232,4.238,4.157,8.642,4.809,13.742
		c-3.934-3.31-6.594-7.314-8.947-11.486c-2.223-4.242-4.148-8.647-4.808-13.742C225.999,418.958,228.658,422.963,231.02,427.129z"/>
	<path fill="#1A1A3A" d="M163.39,525.336c0.508,1.194,1.907,1.865,3.28,1.571l48.421-10.381c0.896-0.192,1.635-0.771,1.973-1.549
		l13.187-29.349c0.563-1.289-0.105-2.75-1.506-3.299l-42.417-10.167c-0.58-0.227-1.226-0.271-1.836-0.124l-43.234,10.361
		c-1.625,0.39-2.517,1.977-1.912,3.401L163.39,525.336z M198.212,485.061c3.724,0.992,7.383,2.163,10.976,3.518l2.123,0.801
		l-0.694,2.091c-1.049,3.162-2.186,6.297-3.548,9.36c-1.346,3.068-2.813,6.099-4.69,8.999c0.128-3.453,0.667-6.776,1.328-10.061
		c0.502-2.561,1.162-5.072,1.872-7.568c-2.927-1.073-5.823-2.236-8.664-3.548c-3.496-1.626-6.927-3.43-10.186-5.708
		C190.692,483.274,194.484,484.078,198.212,485.061z"/>
</g>
</svg>
